<svg width="175" height="87" viewBox="0 0 175 87" fill="none" xmlns="http://www.w3.org/2000/svg">
<path d="M6.76 15.82L12.74 23H9.32L4.1 16.54V23H1.28V8.88H4.1V15.22L9.34 8.88H12.74L6.76 15.82ZM20.9073 11.76C22.1873 11.76 23.2073 12.18 23.9673 13.02C24.7273 13.86 25.1073 15.04 25.1073 16.56V23H22.3073V16.88C22.3073 16 22.0807 15.32 21.6273 14.84C21.174 14.3467 20.554 14.1 19.7673 14.1C18.9673 14.1 18.3273 14.36 17.8473 14.88C17.3673 15.4 17.1273 16.1467 17.1273 17.12V23H14.3073V11.92H17.1273V14.14C17.4207 13.3933 17.9007 12.8133 18.5673 12.4C19.2473 11.9733 20.0273 11.76 20.9073 11.76ZM32.7086 11.78C33.7886 11.78 34.7553 12.0067 35.6086 12.46C36.4753 12.9133 37.1553 13.5733 37.6486 14.44C38.1419 15.2933 38.3886 16.3 38.3886 17.46C38.3886 18.62 38.1419 19.6267 37.6486 20.48C37.1553 21.3333 36.4753 21.9933 35.6086 22.46C34.7553 22.9133 33.7886 23.14 32.7086 23.14C31.6286 23.14 30.6553 22.9133 29.7886 22.46C28.9353 21.9933 28.2619 21.3333 27.7686 20.48C27.2753 19.6267 27.0286 18.62 27.0286 17.46C27.0286 16.3 27.2753 15.2933 27.7686 14.44C28.2619 13.5733 28.9353 12.9133 29.7886 12.46C30.6553 12.0067 31.6286 11.78 32.7086 11.78ZM32.7086 14.22C31.9219 14.22 31.2553 14.5 30.7086 15.06C30.1619 15.6067 29.8886 16.4067 29.8886 17.46C29.8886 18.5133 30.1619 19.32 30.7086 19.88C31.2553 20.4267 31.9219 20.7 32.7086 20.7C33.4953 20.7 34.1619 20.4267 34.7086 19.88C35.2553 19.32 35.5286 18.5133 35.5286 17.46C35.5286 16.4067 35.2553 15.6067 34.7086 15.06C34.1619 14.5 33.4953 14.22 32.7086 14.22ZM56.2416 11.92L53.2616 23H50.1416L47.7616 14.94L45.3216 23H42.2016L39.2416 11.92H42.0616L43.8616 20.48L46.3216 11.92H49.3016L51.7816 20.48L53.6016 11.92H56.2416ZM76.1027 11.76C77.4493 11.76 78.5093 12.18 79.2827 13.02C80.0693 13.8467 80.4627 15.0267 80.4627 16.56V23H77.6627V16.88C77.6627 16.0267 77.4427 15.3733 77.0027 14.92C76.576 14.4533 75.9827 14.22 75.2227 14.22C74.436 14.22 73.8093 14.4667 73.3427 14.96C72.876 15.4533 72.6427 16.1733 72.6427 17.12V23H69.8427V16.88C69.8427 16.0267 69.6227 15.3733 69.1827 14.92C68.756 14.4533 68.1627 14.22 67.4027 14.22C66.616 14.22 65.9893 14.4667 65.5227 14.96C65.056 15.4533 64.8227 16.1733 64.8227 17.12V23H62.0027V11.92H64.8227V14.02C65.116 13.3 65.576 12.7467 66.2027 12.36C66.8427 11.96 67.5827 11.76 68.4227 11.76C69.316 11.76 70.0893 11.9733 70.7427 12.4C71.4093 12.8267 71.9093 13.44 72.2427 14.24C72.5893 13.48 73.1027 12.88 73.7827 12.44C74.476 11.9867 75.2493 11.76 76.1027 11.76ZM93.3602 17.04C93.3602 17.32 93.3268 17.64 93.2602 18H85.1402C85.1802 18.9867 85.4468 19.7133 85.9402 20.18C86.4335 20.6467 87.0468 20.88 87.7802 20.88C88.4335 20.88 88.9735 20.72 89.4002 20.4C89.8402 20.08 90.1202 19.6467 90.2402 19.1H93.2202C93.0735 19.8733 92.7602 20.5667 92.2802 21.18C91.8002 21.7933 91.1802 22.2733 90.4202 22.62C89.6735 22.9667 88.8402 23.14 87.9202 23.14C86.8402 23.14 85.8802 22.9133 85.0402 22.46C84.2002 21.9933 83.5468 21.3333 83.0802 20.48C82.6135 19.6267 82.3802 18.62 82.3802 17.46C82.3802 16.3 82.6135 15.2933 83.0802 14.44C83.5468 13.5733 84.2002 12.9133 85.0402 12.46C85.8802 12.0067 86.8402 11.78 87.9202 11.78C89.0135 11.78 89.9668 12.0067 90.7802 12.46C91.6068 12.9133 92.2402 13.54 92.6802 14.34C93.1335 15.1267 93.3602 16.0267 93.3602 17.04ZM90.5202 16.76C90.5602 15.8533 90.3202 15.1667 89.8002 14.7C89.2935 14.2333 88.6668 14 87.9202 14C87.1602 14 86.5202 14.2333 86.0002 14.7C85.4802 15.1667 85.1935 15.8533 85.1402 16.76H90.5202ZM113.818 11.76C115.164 11.76 116.224 12.18 116.998 13.02C117.784 13.8467 118.178 15.0267 118.178 16.56V23H115.378V16.88C115.378 16.0267 115.158 15.3733 114.718 14.92C114.291 14.4533 113.698 14.22 112.938 14.22C112.151 14.22 111.524 14.4667 111.058 14.96C110.591 15.4533 110.358 16.1733 110.358 17.12V23H107.558V16.88C107.558 16.0267 107.338 15.3733 106.898 14.92C106.471 14.4533 105.878 14.22 105.118 14.22C104.331 14.22 103.704 14.4667 103.238 14.96C102.771 15.4533 102.538 16.1733 102.538 17.12V23H99.7175V11.92H102.538V14.02C102.831 13.3 103.291 12.7467 103.918 12.36C104.558 11.96 105.298 11.76 106.138 11.76C107.031 11.76 107.804 11.9733 108.458 12.4C109.124 12.8267 109.624 13.44 109.958 14.24C110.304 13.48 110.818 12.88 111.498 12.44C112.191 11.9867 112.964 11.76 113.818 11.76ZM125.775 11.78C126.855 11.78 127.822 12.0067 128.675 12.46C129.542 12.9133 130.222 13.5733 130.715 14.44C131.208 15.2933 131.455 16.3 131.455 17.46C131.455 18.62 131.208 19.6267 130.715 20.48C130.222 21.3333 129.542 21.9933 128.675 22.46C127.822 22.9133 126.855 23.14 125.775 23.14C124.695 23.14 123.722 22.9133 122.855 22.46C122.002 21.9933 121.328 21.3333 120.835 20.48C120.342 19.6267 120.095 18.62 120.095 17.46C120.095 16.3 120.342 15.2933 120.835 14.44C121.328 13.5733 122.002 12.9133 122.855 12.46C123.722 12.0067 124.695 11.78 125.775 11.78ZM125.775 14.22C124.988 14.22 124.322 14.5 123.775 15.06C123.228 15.6067 122.955 16.4067 122.955 17.46C122.955 18.5133 123.228 19.32 123.775 19.88C124.322 20.4267 124.988 20.7 125.775 20.7C126.562 20.7 127.228 20.4267 127.775 19.88C128.322 19.32 128.595 18.5133 128.595 17.46C128.595 16.4067 128.322 15.6067 127.775 15.06C127.228 14.5 126.562 14.22 125.775 14.22ZM136.268 14.04C136.681 13.3333 137.228 12.78 137.908 12.38C138.588 11.9667 139.348 11.76 140.188 11.76V14.78H139.368C137.301 14.78 136.268 15.74 136.268 17.66V23H133.448V11.92H136.268V14.04ZM152.169 17.04C152.169 17.32 152.135 17.64 152.069 18H143.949C143.989 18.9867 144.255 19.7133 144.749 20.18C145.242 20.6467 145.855 20.88 146.589 20.88C147.242 20.88 147.782 20.72 148.209 20.4C148.649 20.08 148.929 19.6467 149.049 19.1H152.029C151.882 19.8733 151.569 20.5667 151.089 21.18C150.609 21.7933 149.989 22.2733 149.229 22.62C148.482 22.9667 147.649 23.14 146.729 23.14C145.649 23.14 144.689 22.9133 143.849 22.46C143.009 21.9933 142.355 21.3333 141.889 20.48C141.422 19.6267 141.189 18.62 141.189 17.46C141.189 16.3 141.422 15.2933 141.889 14.44C142.355 13.5733 143.009 12.9133 143.849 12.46C144.689 12.0067 145.649 11.78 146.729 11.78C147.822 11.78 148.775 12.0067 149.589 12.46C150.415 12.9133 151.049 13.54 151.489 14.34C151.942 15.1267 152.169 16.0267 152.169 17.04ZM149.329 16.76C149.369 15.8533 149.129 15.1667 148.609 14.7C148.102 14.2333 147.475 14 146.729 14C145.969 14 145.329 14.2333 144.809 14.7C144.289 15.1667 144.002 15.8533 143.949 16.76H149.329Z" fill="white"/>
<path d="M109 39C113 70 129 84.5 172.5 79.5" stroke="white" stroke-width="2" stroke-linecap="round" stroke-linejoin="round"/>
<path d="M167 73L173.5 79.5L167 86" stroke="white" stroke-width="2" stroke-linecap="round" stroke-linejoin="round"/>
</svg>