<svg xmlns="http://www.w3.org/2000/svg" viewBox="0 0 209.79 210.26"><defs><style>.cls-1{fill:#fff;}</style></defs><title>stamp-ms</title><g id="Layer_2" data-name="Layer 2"><g id="Layer_1-2" data-name="Layer 1"><path class="cls-1" d="M118.58,10.59a4.18,4.18,0,0,1,.7,2.75,4.18,4.18,0,0,1-1.7,3.24,6.13,6.13,0,0,1-4.22.9l-7.25-.59L107.48,0l7.11.58A6.14,6.14,0,0,1,118.43,2a3.87,3.87,0,0,1,1.12,3.27,4,4,0,0,1-1,2.52A3.89,3.89,0,0,1,116.24,9,4.15,4.15,0,0,1,118.58,10.59ZM115,14.25a2.07,2.07,0,0,0,.85-1.65,2.14,2.14,0,0,0-.58-1.79,3.14,3.14,0,0,0-2-.78l-3.19-.26-.37,4.64,3.2.26A3.16,3.16,0,0,0,115,14.25Zm-4.74-6.9,3,.25a2.89,2.89,0,0,0,2-.4,2,2,0,0,0,.79-1.57A2,2,0,0,0,115.56,4a2.87,2.87,0,0,0-1.93-.74l-3-.24Z"/><path class="cls-1" d="M127.91,5.42l-1,4.26,5.83,1.43-.61,2.51-5.83-1.42-1.08,4.43,6.52,1.6-.64,2.63-9.81-2.4,4-16.46,9.82,2.4L134.44,7Z"/><path class="cls-1" d="M157.35,15.69a7.65,7.65,0,0,1,.4,5.21l-3.15-1.64a4.65,4.65,0,0,0-.52-2.71,4.89,4.89,0,0,0-2.12-2,4.43,4.43,0,0,0-4.84.41,6.7,6.7,0,0,0-1.88,2.32,6.64,6.64,0,0,0-.81,2.85,4.45,4.45,0,0,0,2.45,4.2,4.84,4.84,0,0,0,2.84.58,4.59,4.59,0,0,0,2.52-1.12l3.16,1.64a7.77,7.77,0,0,1-4.5,2.66,8.27,8.27,0,0,1-5.42-1,8.4,8.4,0,0,1-3.3-2.95,7.47,7.47,0,0,1-1.14-4,9.59,9.59,0,0,1,1.15-4.43,9.65,9.65,0,0,1,3-3.51,7.51,7.51,0,0,1,4-1.4,9.18,9.18,0,0,1,8.22,4.89Z"/><path class="cls-1" d="M167.76,21l-6.2,7.76a4.43,4.43,0,0,0-1.18,2.89,3.68,3.68,0,0,0,3.94,3.14A4.39,4.39,0,0,0,166.87,33l6.2-7.76,2.62,2.1-6.2,7.76a8.23,8.23,0,0,1-3.16,2.56,5.65,5.65,0,0,1-3.4.37,7.53,7.53,0,0,1-3.24-1.58A6.56,6.56,0,0,1,157,31.94a7.25,7.25,0,0,1,1.92-5.32l6.2-7.77Z"/><path class="cls-1" d="M173,49.24l2.34-7.34-1-1.11-5,4.36-2.23-2.55L179.9,31.42l4.27,4.84a6.47,6.47,0,0,1,1.89,4.33,4.93,4.93,0,0,1-1.83,3.67,4.83,4.83,0,0,1-3.12,1.32,5.21,5.21,0,0,1-3.33-1.17l-2.3,7.64Zm3.11-10L178,41.34c1.27,1.45,2.56,1.62,3.84.49a2.55,2.55,0,0,0,1-1.8,3.07,3.07,0,0,0-.94-2.1L180,35.84Z"/><path class="cls-1" d="M192.59,47.34l-14,9.56-1.91-2.79,14-9.56Z"/><path class="cls-1" d="M200.41,63.37A8,8,0,0,1,199,67.46a9.62,9.62,0,0,1-8.06,3.93A8.08,8.08,0,0,1,186.8,70a8.53,8.53,0,0,1-2.88-3.39,8.66,8.66,0,0,1-.9-4.36,8,8,0,0,1,1.45-4.09,9.08,9.08,0,0,1,3.54-3,9,9,0,0,1,4.51-1,8,8,0,0,1,4.11,1.38,9,9,0,0,1,3.78,7.75Zm-5.45-5a4.65,4.65,0,0,0-2.51-.74,6.48,6.48,0,0,0-2.92.72,6.31,6.31,0,0,0-2.36,1.86,4.58,4.58,0,0,0-1,2.44,5.47,5.47,0,0,0,2.3,4.7A4.65,4.65,0,0,0,191,68a7.12,7.12,0,0,0,5.28-2.58,4.56,4.56,0,0,0,1-2.44,4.88,4.88,0,0,0-.54-2.64A5,5,0,0,0,195,58.32Z"/><path class="cls-1" d="M205.67,75.39l-9.61,2.49a4.47,4.47,0,0,0-2.68,1.6,3.2,3.2,0,0,0-.32,2.7,3.14,3.14,0,0,0,1.59,2.18,4.42,4.42,0,0,0,3.11.1l9.62-2.5.84,3.26-9.62,2.49a8.33,8.33,0,0,1-4.06.15,5.59,5.59,0,0,1-2.94-1.74,7.62,7.62,0,0,1-1.65-3.2,6.6,6.6,0,0,1,.54-5.18,7.27,7.27,0,0,1,4.72-3.11l9.62-2.49Z"/><path class="cls-1" d="M195.33,103.18a4.64,4.64,0,0,1-1.91-1.78,6.76,6.76,0,0,1-.9-3,8,8,0,0,1,.35-3.25,5.44,5.44,0,0,1,1.58-2.41,5.11,5.11,0,0,1,2.6-1.18l.29,3.59a2.73,2.73,0,0,0-1.65,1,2.64,2.64,0,0,0-.53,1.93,2.2,2.2,0,0,0,.69,1.57,2,2,0,0,0,1.5.45,1.87,1.87,0,0,0,1.26-.56,3.33,3.33,0,0,0,.74-1.22c.17-.48.35-1.13.56-2a19,19,0,0,1,.83-2.66,4.83,4.83,0,0,1,1.36-1.84,4.36,4.36,0,0,1,2.5-.91,4.16,4.16,0,0,1,3.56,1.29,7.62,7.62,0,0,1,.64,8.43,4.87,4.87,0,0,1-3.29,2.08l-.3-3.64a2.56,2.56,0,0,0,1.44-.88,2.42,2.42,0,0,0,.44-1.75,2.25,2.25,0,0,0-.61-1.47,1.79,1.79,0,0,0-1.47-.46,1.73,1.73,0,0,0-1.19.55,3.2,3.2,0,0,0-.71,1.19,17.33,17.33,0,0,0-.55,1.91,24.45,24.45,0,0,1-.86,2.73,4.69,4.69,0,0,1-1.37,1.85,4.48,4.48,0,0,1-2.57.93A4.6,4.6,0,0,1,195.33,103.18Z"/><path class="cls-1" d="M196.37,109.63l-3.52-.11.1-3.64,3.53.1Z"/><path class="cls-1" d="M188.45,139.78a4.73,4.73,0,0,1-1-2.39,6.87,6.87,0,0,1,.39-3.14,8.27,8.27,0,0,1,1.63-2.84,5.41,5.41,0,0,1,2.41-1.56,5.05,5.05,0,0,1,2.86,0l-1.18,3.4a2.73,2.73,0,0,0-1.89.22,2.61,2.61,0,0,0-1.26,1.56,2.19,2.19,0,0,0,0,1.71,2,2,0,0,0,1.19,1,1.93,1.93,0,0,0,1.38,0,3.29,3.29,0,0,0,1.16-.82c.35-.37.79-.9,1.31-1.58a18.7,18.7,0,0,1,1.84-2.11,4.76,4.76,0,0,1,2-1.13,4.35,4.35,0,0,1,2.66.17,4.18,4.18,0,0,1,2.74,2.61,6.45,6.45,0,0,1-.17,4.35,6.6,6.6,0,0,1-2.62,3.63,4.93,4.93,0,0,1-3.86.58l1.19-3.45a2.56,2.56,0,0,0,1.67-.23,2.37,2.37,0,0,0,1.11-1.42,2.19,2.19,0,0,0,0-1.59,2,2,0,0,0-2.47-1,3.3,3.3,0,0,0-1.13.8c-.35.37-.77.88-1.27,1.53a25.26,25.26,0,0,1-1.88,2.16,4.79,4.79,0,0,1-2,1.15,4.44,4.44,0,0,1-2.73-.19A4.55,4.55,0,0,1,188.45,139.78Z"/><path class="cls-1" d="M193.11,160.57a8,8,0,0,1-4.19,1.11,9.54,9.54,0,0,1-7.77-4.46A8,8,0,0,1,180,153a9,9,0,0,1,4.29-7.48,8,8,0,0,1,4.2-1.1,9.6,9.6,0,0,1,7.78,4.46,8,8,0,0,1,1.15,4.18,8.89,8.89,0,0,1-4.29,7.47Zm1.12-7.34a4.65,4.65,0,0,0-.8-2.49,6.46,6.46,0,0,0-2.23-2,6.54,6.54,0,0,0-2.87-.91,4.58,4.58,0,0,0-2.55.57,5.4,5.4,0,0,0-2.61,4.54,4.65,4.65,0,0,0,.8,2.49,6.34,6.34,0,0,0,2.23,2,6.47,6.47,0,0,0,2.87.92,4.58,4.58,0,0,0,2.55-.57,5,5,0,0,0,1.89-1.94A5.07,5.07,0,0,0,194.23,153.23Z"/><path class="cls-1" d="M175.2,162.29l-3.63,4.38-2-1.65,5.78-7,13.07,10.79-2.16,2.61Z"/><path class="cls-1" d="M177.66,180.89l-12.27-7.08,5.44,13.09-2.72,2.39-6.69-16.68,3.26-2.87,15.7,8.76Z"/><path class="cls-1" d="M159.93,191.32l-2.31-3.73-5.1,3.16-1.37-2.2,5.1-3.16-2.4-3.88-5.71,3.54-1.43-2.3,8.59-5.33,8.93,14.4-8.59,5.33-1.42-2.29Z"/><path class="cls-1" d="M138.21,193.37l-2.07-5.94,3.19-1.12,5.59,16-5.82,2a6.38,6.38,0,0,1-4.75.14,5.2,5.2,0,0,1-2.73-3.19,5,5,0,0,1,.21-4.17,6.46,6.46,0,0,1,3.75-2.84Zm-3.35,6.78a2.61,2.61,0,0,0,1.3,1.61,3.22,3.22,0,0,0,2.38-.12l2.29-.8-1.72-4.91-2.29.8C135,197.38,134.29,198.52,134.86,200.15Z"/><path class="cls-1" d="M116.94,192.33l5,5.84,1.47-.25-1.11-6.51,3.33-.57,2.86,16.7-6.37,1.09a6.37,6.37,0,0,1-4.67-.66,5.4,5.4,0,0,1-1.66-6.83,5.27,5.27,0,0,1,2.75-2.22l-5.3-6Zm6.87,7.88-2.74.47c-1.91.33-2.72,1.33-2.43,3a2.55,2.55,0,0,0,1,1.76,3.09,3.09,0,0,0,2.28.31l2.74-.47Z"/><path class="cls-1" d="M98.6,209.07a8.07,8.07,0,0,1-3-3.14,9.58,9.58,0,0,1,.17-9,8,8,0,0,1,3.11-3,8.43,8.43,0,0,1,4.33-1,8.61,8.61,0,0,1,4.28,1.19,8,8,0,0,1,3,3.15,9.06,9.06,0,0,1,1,4.51,8.94,8.94,0,0,1-1.2,4.46,8,8,0,0,1-3.11,3,9,9,0,0,1-8.61-.16Zm7-2.56a4.53,4.53,0,0,0,1.8-1.9,6.52,6.52,0,0,0,.7-2.92,6.41,6.41,0,0,0-.58-2.95,4.63,4.63,0,0,0-1.73-2,5.44,5.44,0,0,0-5.23-.1,4.59,4.59,0,0,0-1.8,1.9,6.39,6.39,0,0,0-.69,2.92,6.48,6.48,0,0,0,.58,3,4.57,4.57,0,0,0,1.72,2,5.07,5.07,0,0,0,2.61.72A4.92,4.92,0,0,0,105.57,206.51Z"/><path class="cls-1" d="M79.16,197a4.11,4.11,0,0,1-.35-2.81,4.24,4.24,0,0,1,2.11-3,6.13,6.13,0,0,1,4.31-.34l7.11,1.52L88.78,209l-7-1.49a6.08,6.08,0,0,1-3.62-1.93,3.89,3.89,0,0,1-.69-3.39,4,4,0,0,1,1.36-2.36,3.89,3.89,0,0,1,2.4-.84A4.05,4.05,0,0,1,79.16,197Zm7.8,4.29-3-.64a2.9,2.9,0,0,0-2,.14,2,2,0,0,0-1,1.45,2.06,2.06,0,0,0,.29,1.73,2.92,2.92,0,0,0,1.83,1l2.93.63Zm-3.8-7.46a2.1,2.1,0,0,0-1.06,1.53,2.13,2.13,0,0,0,.35,1.85,3.13,3.13,0,0,0,1.9,1l3.12.67,1-4.56-3.15-.67A3.19,3.19,0,0,0,83.16,193.86Z"/><path class="cls-1" d="M73.4,190l-5.32-2L69,185.6l8.48,3.22-6,15.84-3.16-1.2Z"/><path class="cls-1" d="M57.3,195.6l2.1-3.86-5.27-2.87,1.24-2.27,5.27,2.87,2.18-4-5.9-3.21,1.29-2.38,8.88,4.83L59,199.58l-8.87-4.84,1.29-2.36Z"/><path class="cls-1" d="M31.26,180.1l10.66-12.92,2.59,2.14-7.44,9,10.75-6.28,2.26,1.87L46,185.63l7.41-9L56,178.81,45.34,191.73l-3.16-2.62,4.09-13L34.4,182.7Z"/><path class="cls-1" d="M31.43,157.73a4.7,4.7,0,0,1,2.57.39,6.57,6.57,0,0,1,2.46,2A8.09,8.09,0,0,1,38,163a5.43,5.43,0,0,1,.06,2.88,5.17,5.17,0,0,1-1.47,2.45l-2.27-2.8a2.77,2.77,0,0,0,.81-1.72,2.63,2.63,0,0,0-.66-1.89A2.23,2.23,0,0,0,33,161a2,2,0,0,0-1.48.48,1.91,1.91,0,0,0-.73,1.18,3.29,3.29,0,0,0,.08,1.42,19.52,19.52,0,0,0,.66,1.94,19.58,19.58,0,0,1,.82,2.67A4.78,4.78,0,0,1,32.3,171a4.31,4.31,0,0,1-1.55,2.17,4.17,4.17,0,0,1-3.66,1,6.48,6.48,0,0,1-3.61-2.44,6.58,6.58,0,0,1-1.69-4.14,4.87,4.87,0,0,1,1.54-3.58l2.3,2.83a2.54,2.54,0,0,0-.68,1.54,2.36,2.36,0,0,0,.62,1.69,2.27,2.27,0,0,0,1.33.87,2,2,0,0,0,2.15-1.58,3.33,3.33,0,0,0-.09-1.39,16.44,16.44,0,0,0-.63-1.88,24.17,24.17,0,0,1-.83-2.74,4.62,4.62,0,0,1,.07-2.3,4.38,4.38,0,0,1,1.6-2.22A4.6,4.6,0,0,1,31.43,157.73Z"/><path class="cls-1" d="M26.91,153l3-1.91,2,3.07-3,1.9Z"/><path class="cls-1" d="M11.36,124.05a4.09,4.09,0,0,1,2.35-1.58,4.2,4.2,0,0,1,3.62.51,6.12,6.12,0,0,1,2.26,3.68l1.88,7L5.09,138.05l-1.83-6.88a6.11,6.11,0,0,1,.07-4.11A3.87,3.87,0,0,1,6,124.91a3.94,3.94,0,0,1,2.71.13,3.83,3.83,0,0,1,1.84,1.76A4.1,4.1,0,0,1,11.36,124.05Zm-.27,8.9L10.3,130a2.89,2.89,0,0,0-1-1.72,2,2,0,0,0-1.74-.22,2.08,2.08,0,0,0-1.41,1,3,3,0,0,0,0,2.08l.77,2.89ZM16,126.18a2.07,2.07,0,0,0-1.84-.25,2.13,2.13,0,0,0-1.5,1.15,3.14,3.14,0,0,0-.05,2.16l.82,3.09,4.5-1.2L17.1,128A3.2,3.2,0,0,0,16,126.18Z"/><path class="cls-1" d="M3.36,117l4.37-.45-.61-6,2.57-.26.62,6,4.53-.47-.68-6.68,2.7-.28,1,10L1,120.62,0,110.57l2.67-.28Z"/><path class="cls-1" d="M3.11,85.85a7.64,7.64,0,0,1,4.76-2.14L7.4,87.23A4.64,4.64,0,0,0,5,88.64,4.88,4.88,0,0,0,3.87,91.3a4.43,4.43,0,0,0,2,4.42,6.78,6.78,0,0,0,2.82,1,6.68,6.68,0,0,0,3-.2,4.42,4.42,0,0,0,3.12-3.72,4.9,4.9,0,0,0-.41-2.88,4.69,4.69,0,0,0-1.91-2l.47-3.52a7.65,7.65,0,0,1,4,3.33,8.3,8.3,0,0,1,.92,5.43,8.36,8.36,0,0,1-1.66,4.1,7.42,7.42,0,0,1-3.42,2.44,9.44,9.44,0,0,1-4.56.41,9.57,9.57,0,0,1-4.31-1.61,7.47,7.47,0,0,1-2.65-3.25,8.32,8.32,0,0,1-.5-4.4A8.23,8.23,0,0,1,3.11,85.85Z"/><path class="cls-1" d="M22.36,74.46l-7.51,1.67-.47,1.41,6.26,2.08-1.07,3.22L3.5,77.49l2-6.13a6.4,6.4,0,0,1,2.78-3.82,5,5,0,0,1,4.09-.27,4.9,4.9,0,0,1,2.71,2,5.25,5.25,0,0,1,.67,3.47l7.75-1.87ZM12.17,76.81l.88-2.65q.91-2.75-1.52-3.56a2.49,2.49,0,0,0-2,.07,3,3,0,0,0-1.35,1.87l-.88,2.64Z"/><path class="cls-1" d="M13.46,59.34l3.89,2L20.11,56l2.31,1.19-2.76,5.33,4.05,2.1,3.09-6,2.4,1.25-4.64,9-15-7.79,4.65-9,2.39,1.23Z"/><path class="cls-1" d="M33.9,47.45l-4.08,5.43,2,3-2.15,2.86L20,43.69l2.32-3.09,17.13,5.11-2.16,2.85Zm-2.6-.81-7.21-2.31,4.21,6.3Z"/><path class="cls-1" d="M37.68,24.28l1.84,2-3.41,3.21,9.77,10.38-2.47,2.32L33.65,31.76,30.25,35l-1.84-2Z"/><path class="cls-1" d="M43.62,19.9,53.75,33.48,51,35.5,40.91,21.92Z"/><path class="cls-1" d="M50.09,15.49,60.57,25,58.05,11.07l3.16-1.76,3,17.73-3.8,2.11L46.92,17.24Z"/><path class="cls-1" d="M69.69,9.06l1.46,4.15,5.66-2,.86,2.45-5.66,2L73.52,20l6.34-2.23.9,2.56-9.53,3.35-5.62-16L75.14,4.3,76,6.83Z"/><path class="cls-1" d="M85.34,15.65l.82,3.43-3.55.84-.82-3.43Z"/><path class="cls-1" d="M104.89,30.11a75,75,0,1,1-75,75,75.11,75.11,0,0,1,75-75m0-1a76,76,0,1,0,76,76,76,76,0,0,0-76-76Z"/></g></g></svg>